<svg viewBox="0 0 234 125" fill="none" xmlns="http://www.w3.org/2000/svg">
<title>LUNICA. Тот момент, когда чувствуешь свою магию</title>s
<path d="M19.0293 79.9016H21.1853V72.0896H24.1673V70.1016H16.0473V72.0896H19.0293V79.9016ZM30.1616 80.0696C33.1856 80.0696 35.3836 77.7876 35.3836 75.0016V74.9736C35.3836 72.1876 33.2136 69.9336 30.1896 69.9336C27.1656 69.9336 24.9676 72.2156 24.9676 75.0016V75.0296C24.9676 77.8156 27.1376 80.0696 30.1616 80.0696ZM30.1896 78.0816C28.4536 78.0816 27.2216 76.6816 27.2216 75.0016V74.9736C27.2216 73.2936 28.4256 71.9216 30.1616 71.9216C31.8976 71.9216 33.1296 73.3216 33.1296 75.0016V75.0296C33.1296 76.7096 31.9256 78.0816 30.1896 78.0816ZM39.1543 79.9016H41.3103V72.0896H44.2923V70.1016H36.1723V72.0896H39.1543V79.9016ZM50.1477 79.9016H52.2617V73.5456L54.9917 77.6896H55.0477L57.8057 73.5036V79.9016H59.9477V70.1016H57.6237L55.0477 74.2456L52.4717 70.1016H50.1477V79.9016ZM67.062 80.0696C70.086 80.0696 72.284 77.7876 72.284 75.0016V74.9736C72.284 72.1876 70.114 69.9336 67.09 69.9336C64.066 69.9336 61.868 72.2156 61.868 75.0016V75.0296C61.868 77.8156 64.038 80.0696 67.062 80.0696ZM67.09 78.0816C65.354 78.0816 64.122 76.6816 64.122 75.0016V74.9736C64.122 73.2936 65.326 71.9216 67.062 71.9216C68.798 71.9216 70.03 73.3216 70.03 75.0016V75.0296C70.03 76.7096 68.826 78.0816 67.09 78.0816ZM74.1965 79.9016H76.3105V73.5456L79.0405 77.6896H79.0965L81.8545 73.5036V79.9016H83.9965V70.1016H81.6725L79.0965 74.2456L76.5205 70.1016H74.1965V79.9016ZM86.3508 79.9016H93.8128V77.9836H88.4928V75.9256H93.1128V74.0076H88.4928V72.0196H93.7428V70.1016H86.3508V79.9016ZM95.7297 79.9016H97.8857V75.9676H101.862V79.9016H104.018V70.1016H101.862V73.9796H97.8857V70.1016H95.7297V79.9016ZM108.648 79.9016H110.804V72.0896H113.786V70.1016H105.666V72.0896H108.648V79.9016ZM113.42 82.1696C115.086 82.1416 116.01 81.3996 116.01 79.5516V77.6616H113.742V79.9016H114.61C114.68 80.6996 114.204 81.1896 113.238 81.2876L113.42 82.1696ZM16.7473 96.9016H18.9033L18.8753 92.9116H19.6173L23.1873 96.9016H25.9313L21.2833 91.8476L25.6653 87.1016H22.9913L19.5613 91.0356H18.8753L18.9033 87.1016H16.7473V96.9016ZM31.1049 97.0696C34.1289 97.0696 36.3269 94.7876 36.3269 92.0016V91.9736C36.3269 89.1876 34.1569 86.9336 31.1329 86.9336C28.1089 86.9336 25.9109 89.2156 25.9109 92.0016V92.0296C25.9109 94.8156 28.0809 97.0696 31.1049 97.0696ZM31.1329 95.0816C29.3969 95.0816 28.1649 93.6816 28.1649 92.0016V91.9736C28.1649 90.2936 29.3689 88.9216 31.1049 88.9216C32.8409 88.9216 34.0729 90.3216 34.0729 92.0016V92.0296C34.0729 93.7096 32.8689 95.0816 31.1329 95.0816ZM38.2395 96.9016H40.3955V89.0616H45.2815V87.1016H38.2395V96.9016ZM44.6749 94.9416V98.8896H46.6909V96.9016H53.6069V98.8896H55.6229V94.9416H54.6149L51.2829 87.0316H49.0149L45.6549 94.9416H44.6749ZM50.1209 89.4116L52.3749 95.0256H47.8669L50.1209 89.4116ZM56.2393 96.9016H58.4373L59.3333 94.7036H63.4773L64.3733 96.9016H66.6273L62.4273 87.0316H60.4393L56.2393 96.9016ZM60.1033 92.7996L61.4053 89.6216L62.7073 92.7996H60.1033ZM77.8251 96.9016H79.9811V87.1016H77.8251V91.7776C77.2791 91.9176 76.6631 92.0016 76.0191 92.0016C74.8291 92.0016 74.2411 91.4836 74.2411 90.3216V87.1016H72.0851V90.5596C72.0851 92.9116 73.5551 93.9616 75.7951 93.9616C76.4391 93.9616 77.1951 93.8636 77.8251 93.7376V96.9016ZM85.6913 96.9016L91.1373 87.1016H88.7433L86.4193 91.5816L83.8853 87.1016H81.4493L85.2153 93.5416L83.2973 96.9016H85.6913ZM92.4621 96.9016H97.1241C99.3361 96.9016 100.792 96.0056 100.792 94.2136V94.1856C100.792 92.8696 100.092 92.2116 98.9581 91.7776C99.6581 91.3856 100.246 90.7696 100.246 89.6636V89.6356C100.246 88.9636 100.022 88.4176 99.5741 87.9696C99.0141 87.4096 98.1321 87.1016 97.0121 87.1016H92.4621V96.9016ZM98.1041 90.0276C98.1041 90.7556 97.5021 91.0636 96.5501 91.0636H94.5621V88.9916H96.6901C97.6001 88.9916 98.1041 89.3556 98.1041 89.9996V90.0276ZM98.6501 93.9196V93.9476C98.6501 94.6756 98.0761 95.0116 97.1241 95.0116H94.5621V92.8556H97.0541C98.1601 92.8556 98.6501 93.2616 98.6501 93.9196ZM107.158 97.0696C109.048 97.0696 110.168 96.3976 111.176 95.3196L109.804 93.9336C109.034 94.6336 108.348 95.0816 107.228 95.0816C105.548 95.0816 104.386 93.6816 104.386 92.0016V91.9736C104.386 90.2936 105.576 88.9216 107.228 88.9216C108.208 88.9216 108.978 89.3416 109.734 90.0276L111.106 88.4456C110.196 87.5496 109.09 86.9336 107.242 86.9336C104.232 86.9336 102.132 89.2156 102.132 92.0016V92.0296C102.132 94.8436 104.274 97.0696 107.158 97.0696ZM115.184 96.9016H117.34V89.0896H120.322V87.1016H112.202V89.0896H115.184V96.9016ZM121.98 96.9016H126.642C128.854 96.9016 130.31 96.0056 130.31 94.2136V94.1856C130.31 92.8696 129.61 92.2116 128.476 91.7776C129.176 91.3856 129.764 90.7696 129.764 89.6636V89.6356C129.764 88.9636 129.54 88.4176 129.092 87.9696C128.532 87.4096 127.65 87.1016 126.53 87.1016H121.98V96.9016ZM127.622 90.0276C127.622 90.7556 127.02 91.0636 126.068 91.0636H124.08V88.9916H126.208C127.118 88.9916 127.622 89.3556 127.622 89.9996V90.0276ZM128.168 93.9196V93.9476C128.168 94.6756 127.594 95.0116 126.642 95.0116H124.08V92.8556H126.572C127.678 92.8556 128.168 93.2616 128.168 93.9196ZM135.088 96.9016L140.534 87.1016H138.14L135.816 91.5816L133.282 87.1016H130.846L134.612 93.5416L132.694 96.9016H135.088ZM141.859 96.9016H149.321V94.9836H144.001V92.9256H148.621V91.0076H144.001V89.0196H149.251V87.1016H141.859V96.9016ZM151.238 96.9016H164.678V87.1016H162.522V94.9416H159.036V87.1016H156.88V94.9416H153.394V87.1016H151.238V96.9016ZM167.029 96.9016H170.837C173.385 96.9016 174.785 95.5856 174.785 93.4996V93.4856C174.785 91.3016 173.273 90.1816 170.921 90.1816H169.185V87.1016H167.029V96.9016ZM169.185 94.9556V92.0996H170.893C171.999 92.0996 172.601 92.6176 172.601 93.5136V93.5276C172.601 94.4656 171.929 94.9556 170.879 94.9556H169.185ZM21.3393 114.07C23.2293 114.07 24.3493 113.398 25.3573 112.32L23.9853 110.934C23.2153 111.634 22.5293 112.082 21.4093 112.082C19.7293 112.082 18.5673 110.682 18.5673 109.002V108.974C18.5673 107.294 19.7573 105.922 21.4093 105.922C22.3893 105.922 23.1593 106.342 23.9153 107.028L25.2873 105.446C24.3773 104.55 23.2713 103.934 21.4233 103.934C18.4133 103.934 16.3133 106.216 16.3133 109.002V109.03C16.3133 111.844 18.4553 114.07 21.3393 114.07ZM27.0832 113.902H31.7452C33.9572 113.902 35.4132 113.006 35.4132 111.214V111.186C35.4132 109.87 34.7132 109.212 33.5792 108.778C34.2792 108.386 34.8672 107.77 34.8672 106.664V106.636C34.8672 105.964 34.6432 105.418 34.1952 104.97C33.6352 104.41 32.7532 104.102 31.6332 104.102H27.0832V113.902ZM32.7252 107.028C32.7252 107.756 32.1232 108.064 31.1712 108.064H29.1832V105.992H31.3112C32.2212 105.992 32.7252 106.356 32.7252 107V107.028ZM33.2712 110.92V110.948C33.2712 111.676 32.6972 112.012 31.7452 112.012H29.1832V109.856H31.6752C32.7812 109.856 33.2712 110.262 33.2712 110.92ZM41.9467 114.07C44.9707 114.07 47.1687 111.788 47.1687 109.002V108.974C47.1687 106.188 44.9987 103.934 41.9747 103.934C38.9507 103.934 36.7527 106.216 36.7527 109.002V109.03C36.7527 111.816 38.9227 114.07 41.9467 114.07ZM41.9747 112.082C40.2387 112.082 39.0067 110.682 39.0067 109.002V108.974C39.0067 107.294 40.2107 105.922 41.9467 105.922C43.6827 105.922 44.9147 107.322 44.9147 109.002V109.03C44.9147 110.71 43.7107 112.082 41.9747 112.082ZM49.0813 113.902H51.2373V109.968H52.8613C53.2673 112.278 55.1993 114.07 57.7893 114.07C60.7153 114.07 62.8293 111.746 62.8293 109.002V108.974C62.8293 106.23 60.7433 103.934 57.8173 103.934C55.2553 103.934 53.3233 105.712 52.8753 107.98H51.2373V104.102H49.0813V113.902ZM57.8173 112.082C56.1513 112.082 55.0313 110.696 55.0313 109.002V108.974C55.0313 107.28 56.1233 105.922 57.7893 105.922C59.4553 105.922 60.5753 107.308 60.5753 109.002V109.03C60.5753 110.724 59.4833 112.082 57.8173 112.082ZM68.9465 113.902H71.0605V107.546L73.7905 111.69H73.8465L76.6045 107.504V113.902H78.7465V104.102H76.4225L73.8465 108.246L71.2705 104.102H68.9465V113.902ZM80.2608 113.902H82.4588L83.3548 111.704H87.4988L88.3948 113.902H90.6488L86.4488 104.032H84.4608L80.2608 113.902ZM84.1248 109.8L85.4268 106.622L86.7288 109.8H84.1248ZM92.1614 113.902H94.3174V106.062H99.2034V104.102H92.1614V113.902ZM109.537 113.902V104.102H107.479L102.985 110.304V104.102H100.829V113.902H102.733L107.381 107.504V113.902H109.537ZM111.89 113.902H114.046V109.968H115.67C116.076 112.278 118.008 114.07 120.598 114.07C123.524 114.07 125.638 111.746 125.638 109.002V108.974C125.638 106.23 123.552 103.934 120.626 103.934C118.064 103.934 116.132 105.712 115.684 107.98H114.046V104.102H111.89V113.902ZM120.626 112.082C118.96 112.082 117.84 110.696 117.84 109.002V108.974C117.84 107.28 118.932 105.922 120.598 105.922C122.264 105.922 123.384 107.308 123.384 109.002V109.03C123.384 110.724 122.292 112.082 120.626 112.082Z" fill="white"/>
<path fill-rule="evenodd" clip-rule="evenodd" d="M5.06543 58.868H15.9326V61.132H7.32943V69.7352H5.06543V58.868Z" fill="white"/>
<path fill-rule="evenodd" clip-rule="evenodd" d="M185.867 124.867L175 124.867L175 122.603L183.603 122.603L183.603 114L185.867 114L185.867 124.867Z" fill="white"/>
<path d="M5.2 48H28.35V45.6H7.8V13H5.2V48ZM48.9805 48.55C57.4805 48.55 63.3305 43.2 63.3305 33.15V13H60.7305V33.45C60.7305 41.9 56.1805 46.2 49.0805 46.2C41.6805 46.2 37.2305 41.45 37.2305 33.2V13H34.6305V33.45C34.6305 43.25 40.5805 48.55 48.9805 48.55ZM73.1688 48H75.6688V16.9L100.319 48H102.269V13H99.7688V43.45L75.6188 13H73.1688V48ZM113.021 48H115.621V13H113.021V48ZM142.241 48.6C148.441 48.6 152.441 46.15 156.141 42.5L154.391 40.8C150.841 44.3 147.391 46.25 142.341 46.25C133.991 46.25 127.541 39.35 127.541 30.5V30.4C127.541 21.6 133.891 14.75 142.291 14.75C147.541 14.75 151.041 16.95 154.091 19.9L155.941 18C152.341 14.7 148.591 12.4 142.341 12.4C132.241 12.4 124.841 20.6 124.841 30.5V30.6C124.841 40.65 132.241 48.6 142.241 48.6ZM160.305 48H163.005L167.455 38.2H188.105L192.555 48H195.405L179.105 12.75H176.605L160.305 48ZM168.555 35.85L177.805 15.6L187.005 35.85H168.555Z" fill="white"/>
</svg>
