<svg width="709" height="136" viewBox="0 0 709 136" fill="none" xmlns="http://www.w3.org/2000/svg">
<path d="M0.360668 133H86.5529V124.064H10.041V2.68781H0.360668V133ZM163.364 135.048C195.012 135.048 216.792 115.129 216.792 77.7104V2.68781H207.112V78.8274C207.112 110.288 190.171 126.298 163.737 126.298C136.185 126.298 119.617 108.613 119.617 77.8966V2.68781H109.936V78.8274C109.936 115.315 132.089 135.048 163.364 135.048ZM253.422 133H262.73V17.2083L354.507 133H361.768V2.68781H352.46V116.059L262.544 2.68781H253.422V133ZM401.799 133H411.48V2.68781H401.799V133ZM510.594 135.234C533.678 135.234 548.571 126.112 562.347 112.522L555.831 106.193C542.614 119.224 529.768 126.484 510.966 126.484C479.878 126.484 455.863 100.794 455.863 67.8439V67.4716C455.863 34.7074 479.505 9.20342 510.78 9.20342C530.327 9.20342 543.358 17.3945 554.714 28.3779L561.602 21.3038C548.198 9.01726 534.236 0.45389 510.966 0.45389C473.362 0.45389 445.81 30.9842 445.81 67.8439V68.2162C445.81 105.634 473.362 135.234 510.594 135.234ZM577.85 133H587.903L604.471 96.5126H681.355L697.924 133H708.535L647.846 1.75701H638.538L577.85 133ZM608.567 87.7631L643.006 12.3681L677.26 87.7631H608.567Z" fill="white"/>
</svg>
