<svg width="53" height="67" viewBox="0 0 53 67" fill="none" xmlns="http://www.w3.org/2000/svg">
<path d="M19.6974 11.7576C24.6264 5.63843 29.1204 2 29.1204 2C29.1204 2 51.2227 19.8834 51.2227 43.1474C51.2227 55.2203 41.3202 65 29.1204 65C17.534 65 8.03292 56.1906 7.09619 44.9666" stroke="white" stroke-width="2.5" stroke-miterlimit="10" stroke-linecap="round" stroke-linejoin="round"/>
<path d="M12.6099 22.2365C31.2106 38.1575 29.1765 48.3184 29.7006 56.6206" stroke="white" stroke-width="2.5" stroke-miterlimit="10" stroke-linecap="round" stroke-linejoin="round"/>
<path d="M28.3176 45.1209C32.9566 42.0117 34.9081 36.499 33.5922 31.1516C32.2094 25.5176 27.8603 21.1184 22.976 18.1856C16.7757 14.4589 9.23733 12.3641 2 11.7577C3.29357 15.6166 3.24897 19.8394 3.62812 23.8527C4.07418 28.6268 4.89939 33.4229 7.1743 37.7118C11.1888 45.2753 20.2996 50.5014 28.3176 45.1209Z" stroke="white" stroke-width="2.5" stroke-miterlimit="10" stroke-linecap="round" stroke-linejoin="round"/>
</svg>
