<svg width="67" height="68" viewBox="0 0 67 68" fill="none" xmlns="http://www.w3.org/2000/svg">
<path d="M20.452 18.4231C20.4449 18.4302 20.4377 18.4446 20.4235 18.4589C20.2808 18.6522 19.5817 19.6904 19.3035 20.9864L19.2892 21.0007C19.2678 21.1153 19.2535 21.2299 19.2393 21.3444C19.1893 21.6881 19.1751 22.0461 19.2107 22.4041C19.2107 22.4185 19.2107 22.4256 19.2179 22.4399C19.2892 23.3922 19.5959 24.3231 20.1452 25.1751C21.2866 26.9508 23.2555 28.0535 25.2815 28.0535C26.3872 28.0535 27.4358 27.7385 28.406 27.1155C31.5377 25.0964 31.0027 22.0819 30.5318 19.4184C30.0753 16.855 29.6901 14.6425 32.1369 13.2033C33.3068 12.516 35.2044 11.8214 36.8095 11.8214C37.0663 11.8214 37.3017 11.8429 37.5228 11.8787C39.7129 12.2439 40.4762 13.7833 41.3037 15.9242C42.1454 18.1009 43.2797 20.4781 46.0547 21.2012C46.554 21.3301 47.0748 21.4017 47.5956 21.4017C49.8427 21.4017 51.9257 20.1988 53.0385 18.2656C54.2727 16.1104 54.1014 13.3322 52.6105 11.3489C51.3764 9.73782 49.593 8.9502 47.139 8.9502C46.5184 8.9502 45.8335 9.00032 45.0488 9.10056C44.3212 9.19364 43.7434 9.2366 43.2298 9.2366C41.4535 9.2366 40.2764 8.69243 39.5417 7.53249C39.078 6.80215 38.7855 6.01453 38.4716 5.18395C37.8724 3.57292 37.2517 1.91176 35.3827 0.830578C34.4482 0.286406 33.3782 0 32.2725 0C30.9099 0 29.5688 0.45109 28.4988 1.26019C25.6382 3.42972 25.9021 6.60167 26.6083 9.70201C27.0649 11.714 27.2718 13.7475 25.6524 15.022C25.0104 15.5232 24.3042 15.8812 23.548 16.2536C22.3139 16.8622 21.3223 17.1199 20.452 18.4231ZM26.4514 16.0388C28.6343 14.3132 28.3917 11.7212 27.8639 9.41561C27.1576 6.32242 27.122 3.92377 29.2763 2.29125C30.1252 1.64684 31.1881 1.28883 32.2796 1.28883C33.157 1.28883 34.0059 1.51795 34.7478 1.94756C36.2102 2.79246 36.7025 4.10993 37.2732 5.63504C37.5942 6.49426 37.9223 7.38212 38.4573 8.21986C39.4418 9.76646 40.9969 10.5254 43.2298 10.5254C43.8004 10.5254 44.4282 10.4825 45.2129 10.3822C45.9477 10.2891 46.5754 10.2462 47.1461 10.2462C49.1935 10.2462 50.606 10.8476 51.5833 12.1436C52.7675 13.7189 52.9101 15.9242 51.9257 17.6355C51.0411 19.1677 49.3861 20.1272 47.5956 20.1272C47.1818 20.1272 46.7752 20.0771 46.3828 19.9697C44.4139 19.4541 43.4366 17.8646 42.5093 15.4731C41.589 13.0959 40.5903 11.0911 37.7368 10.6257C37.4515 10.5756 37.1376 10.5541 36.8166 10.5541C34.8477 10.5541 32.7219 11.3918 31.502 12.1078C28.2776 13.9981 28.8055 17.0054 29.2763 19.6618C29.7329 22.2538 30.1324 24.4949 27.7212 26.0487C26.965 26.5355 26.1446 26.7862 25.2886 26.7862C23.6978 26.7862 22.1427 25.9126 21.2367 24.5021C20.3735 23.1631 20.2594 21.6165 20.9085 20.163C21.5648 18.7023 22.7562 18.1152 24.133 17.4278C24.9034 17.0269 25.7095 16.6259 26.4514 16.0388Z" fill="white"/>
<path d="M44.1429 27.137C43.8433 27.0082 43.5579 26.8864 43.2726 26.7576C41.4036 25.9127 41.4606 24.5164 41.7103 22.3111C41.8102 21.4519 41.91 20.5569 41.8102 19.6976C41.6675 18.416 41.054 17.2417 40.0838 16.3753C39.1279 15.5233 37.9081 15.0579 36.6525 15.0579C36.2959 15.0579 35.9392 15.0937 35.5896 15.1724C34.2485 15.4588 33.0929 16.2608 32.3296 17.4422C31.5663 18.6165 31.3023 20.0055 31.5877 21.3516C32.1369 23.9365 34.0202 24.6525 35.6824 25.2826C36.4029 25.5547 37.1376 25.8411 37.7868 26.2563C39.3847 27.3017 39.3063 28.655 39.0352 30.7673C38.921 31.6479 38.8069 32.5644 38.8996 33.4738C39.1422 35.9727 41.375 37.9274 43.9788 37.9274C44.3284 37.9274 44.685 37.8916 45.0275 37.82C46.3686 37.5336 47.5242 36.7317 48.2875 35.5502C49.0508 34.376 49.3148 32.9869 49.0294 31.6408C48.4659 28.9629 46.1688 27.9963 44.1429 27.137ZM47.2175 34.8557C46.6397 35.7436 45.7694 36.3522 44.7635 36.567C44.5067 36.6243 44.2428 36.6457 43.9788 36.6457C42.0242 36.6457 40.3549 35.1994 40.1766 33.3521C40.1052 32.5859 40.2051 31.7482 40.3121 30.9319C40.5618 28.9557 40.8471 26.7146 38.4859 25.1752C37.7297 24.6811 36.9236 24.3732 36.1389 24.0725C34.5196 23.4567 33.2427 22.9698 32.8432 21.0796C32.4009 18.9959 33.7848 16.8694 35.8536 16.4255C36.1175 16.3682 36.3815 16.3395 36.6454 16.3395C38.6072 16.3395 40.3121 17.8718 40.5261 19.8265C40.6046 20.5425 40.519 21.323 40.4262 22.1536C40.305 23.2061 40.1837 24.2945 40.4262 25.2897C40.6759 26.3351 41.2894 27.1227 42.281 27.6884C42.3238 27.717 42.3666 27.7457 42.4023 27.7671V27.7743L42.5164 27.8244C42.5235 27.8316 42.5307 27.8316 42.5378 27.8387L42.8446 27.9748C42.9159 28.0034 42.9801 28.0321 43.03 28.0607L43.2868 28.1753C43.3439 28.2039 43.3582 28.2039 43.3867 28.2111C43.4723 28.2469 43.5579 28.2827 43.6435 28.3185C45.5482 29.1276 47.3459 29.8865 47.7739 31.9129C47.9879 32.9225 47.7882 33.9678 47.2175 34.8557Z" fill="white"/>
<path d="M64.4595 23.1629C64.3026 23.077 64.1385 23.0054 63.9601 22.9409C63.953 22.9409 63.9459 22.9338 63.9387 22.9338C63.6891 22.8335 63.4537 22.7691 63.2325 22.7261C63.2254 22.7261 63.2182 22.7261 63.2111 22.7189C62.2053 22.5328 61.5632 22.8478 61.5632 22.8478C61.5133 22.8622 61.4562 22.8836 61.4063 22.898C61.3564 22.9123 61.3064 22.9338 61.2565 22.9552C60.6287 23.2058 60.0937 23.6068 59.6015 23.972C58.9737 24.4445 58.3816 24.8885 57.6825 24.9672C57.6112 24.9744 57.5327 24.9816 57.4614 24.9816C56.7266 24.9816 56.1559 24.5161 55.4996 23.9791C54.9289 23.5137 54.2798 22.9839 53.4523 22.7476C53.0528 22.633 52.6604 22.5757 52.2824 22.5757C49.9925 22.5757 48.7512 24.6164 48.7369 26.5353C48.7298 27.5163 49.0437 28.4256 49.6144 29.0915C50.2778 29.8719 51.2408 30.2872 52.3965 30.2944H52.4322C53.7162 30.2944 54.5794 29.5784 55.3427 28.9483C55.9063 28.4829 56.4341 28.0461 57.0762 27.9244C57.1974 27.9029 57.3116 27.8886 57.4257 27.8886C58.189 27.8886 58.8025 28.3898 59.5088 28.9626C60.0937 29.4352 60.6929 29.9292 61.4634 30.2013C61.9057 30.3588 62.3479 30.4376 62.7688 30.4376C64.9089 30.4376 66.2072 28.4184 66.2215 26.4637C66.2501 25.1606 65.6865 23.8359 64.4595 23.1629ZM62.7902 29.1559C62.512 29.1559 62.2195 29.0986 61.9128 28.9912C61.3564 28.7908 60.8641 28.3898 60.3434 27.9673C59.5587 27.3301 58.6741 26.6069 57.4543 26.6069C57.2617 26.6069 57.069 26.6212 56.8764 26.657C55.9063 26.836 55.1858 27.4303 54.5509 27.953C53.866 28.5187 53.2811 29.0056 52.4536 29.0056H52.4322C50.6559 28.9912 50.0353 27.7167 50.0424 26.5353C50.0495 25.2393 50.8414 23.8574 52.3038 23.8574C52.5606 23.8574 52.8316 23.9004 53.117 23.9791C53.6948 24.1438 54.187 24.5448 54.7078 24.9744C55.4497 25.583 56.2915 26.2632 57.4828 26.2632C57.6041 26.2632 57.7253 26.2561 57.8537 26.2417C58.8881 26.12 59.6871 25.5257 60.3862 25.003C61.1138 24.4589 61.7416 23.9863 62.562 23.9863H62.5976C64.3596 24.0078 64.9803 25.2751 64.9731 26.4566C64.9517 27.7883 64.1385 29.1559 62.7902 29.1559Z" fill="white"/>
<path d="M16.1078 51.4745C17.2278 51.4745 18.1481 52.1547 19.2324 53.0354C20.8731 54.3744 22.7921 55.1477 24.5042 55.1477C25.8025 55.1477 26.9367 54.7038 27.8284 53.8589C29.2052 52.8851 29.4406 50.6941 29.4406 50.6941C29.619 49.4554 29.3622 48.2167 29.0626 47.0209C28.5989 45.1664 28.2065 43.5697 29.6047 42.2021C30.3038 41.5219 31.2241 41.035 32.1086 40.5624C34.0205 39.5529 36.1891 38.4072 36.0107 35.1279C35.9323 33.6815 35.2902 32.3426 34.2059 31.3473C33.1501 30.3807 31.8019 29.8508 30.4037 29.8508C29.7474 29.8508 29.0982 29.9726 28.4776 30.2089C26.7013 30.8819 25.6598 31.9703 25.3031 33.5168C24.9964 34.8272 25.2247 36.2807 25.4458 37.6841C25.5813 38.5719 25.7311 39.4884 25.724 40.319C25.7169 42.5744 23.7551 43.6556 21.6864 44.8013C20.9587 45.2022 20.2168 45.6175 19.5748 46.0758C18.7045 46.7059 16.9995 47.7656 15.423 47.7656C14.6383 47.7656 14.0034 47.5006 13.4755 46.9636C13.2544 46.7417 12.9048 46.3192 13.0047 46.0185C13.0618 45.8466 13.3685 45.3884 14.9165 44.9301C16.0008 44.6079 17.2421 44.4218 18.0625 44.2929C18.4263 44.2356 18.6902 44.1998 18.8614 44.1568C20.7447 43.7201 22.2856 42.2522 22.8777 40.3118C23.4626 38.3929 23.0275 36.4096 21.7149 35.0062C20.7376 33.9536 19.4464 33.4524 18.198 32.9655C16.5573 32.3283 15.1377 31.7769 14.5812 30.1086C14.3173 29.3353 14.4528 28.426 14.6026 27.4737C14.7096 26.7863 14.8166 26.0703 14.7738 25.3614C14.7168 24.3805 14.3316 23.5857 13.9606 22.8196C13.6182 22.1036 13.29 21.4233 13.29 20.6715C13.29 19.2753 14.1818 18.7096 15.637 17.9077C16.8854 17.2203 18.305 16.4399 18.6974 14.6785C18.9827 13.4111 18.6974 12.1581 17.8984 11.1557C17.0566 10.096 15.7583 9.46588 14.4243 9.46588C13.3757 9.46588 12.3983 9.85253 11.6136 10.59C10.1298 11.9648 10.4223 13.9338 10.672 15.6666C10.9645 17.6714 11.0643 18.8314 9.75889 19.4543C9.43074 19.6047 9.08832 19.7622 8.75304 19.9126C7.36198 20.5283 5.92098 21.1727 4.91513 22.1895C3.70955 23.4139 3.35286 24.9533 3.83795 26.8937C4.52278 29.6432 6.54874 30.3163 8.33216 30.9034C9.35227 31.2399 10.3224 31.5621 11.1214 32.2209C12.1487 33.0658 12.5553 34.1756 12.3912 35.7079C12.2842 36.7318 12.3199 37.7413 12.3555 38.7223C12.3983 39.7963 12.434 40.8059 12.2913 41.8011C12.0559 43.3979 10.9217 43.6699 9.07406 43.9707C8.90285 43.9993 8.72451 44.028 8.5533 44.0566C6.22773 44.4719 4.42291 45.8538 3.71668 47.7512C3.11032 49.3909 3.34573 51.1738 4.37298 52.6488C5.39309 54.1238 7.01956 55.0116 8.71024 55.0116C9.338 55.0116 9.95863 54.8899 10.565 54.6536C11.4995 54.2885 12.2343 53.6584 12.9405 53.0498C13.6396 52.4483 14.2959 51.8826 15.0877 51.6249C15.4373 51.5318 15.7797 51.4745 16.1078 51.4745ZM12.0845 52.0903C11.4282 52.6559 10.8147 53.1858 10.0799 53.4722C9.62335 53.6512 9.15966 53.7443 8.69597 53.7443C7.41905 53.7443 6.19206 53.0712 5.41449 51.9399C4.63692 50.8158 4.45145 49.4625 4.908 48.2238C5.45016 46.756 6.89829 45.682 8.76731 45.3454C8.93138 45.3168 9.10259 45.2881 9.2738 45.2595C11.0073 44.9731 13.1688 44.6151 13.5469 42.0016C13.7109 40.8918 13.6681 39.7748 13.6253 38.6865C13.5897 37.7557 13.554 36.789 13.6539 35.8582C13.8607 33.882 13.2972 32.3712 11.9204 31.2399C10.9359 30.4308 9.80882 30.0585 8.72451 29.7005C6.96963 29.1205 5.5857 28.6623 5.07207 26.6001C4.30877 23.5499 6.14926 22.4902 9.25953 21.1083C9.60195 20.9579 9.9515 20.8004 10.2939 20.6429C11.2998 20.1703 11.899 19.3827 12.0702 18.3015C12.2129 17.4208 12.0702 16.447 11.9347 15.5019C11.7064 13.941 11.4924 12.4731 12.4768 11.5566C13.0261 11.0483 13.6967 10.7762 14.4172 10.7762C15.3517 10.7762 16.3005 11.2416 16.8925 11.9863C17.4418 12.6808 17.6416 13.5472 17.4418 14.4207C17.1779 15.6093 16.172 16.1606 15.0164 16.7979C13.6111 17.5783 12.0131 18.459 12.006 20.6858C12.006 21.7312 12.4126 22.5761 12.805 23.3924C13.1331 24.0798 13.447 24.7242 13.4898 25.4474C13.5255 26.0202 13.4327 26.6359 13.3328 27.2947C13.1759 28.3615 13.0047 29.4642 13.3685 30.5382C14.1176 32.7722 16.0436 33.524 17.7414 34.1827C18.9042 34.6338 20.0028 35.0634 20.7875 35.9012C21.7791 36.968 22.1072 38.4788 21.6578 39.9467C21.2013 41.4431 20.0242 42.5816 18.5832 42.911C18.4619 42.9396 18.1909 42.9826 17.877 43.0255C15.2161 43.4265 12.3413 43.9993 11.7991 45.6175C11.5566 46.3335 11.8134 47.0925 12.5695 47.8658C13.34 48.6606 14.303 49.0616 15.4373 49.0616C17.3776 49.0616 19.3394 47.8515 20.3381 47.1283C20.9159 46.713 21.5936 46.3335 22.3213 45.9397C24.5184 44.7225 27.0152 43.3477 27.0223 40.3333C27.0223 39.3953 26.8725 38.4287 26.7299 37.4907C26.2519 34.4333 26.1021 32.5001 28.9484 31.4189C29.4192 31.2399 29.9186 31.1468 30.418 31.1468C32.6793 31.1468 34.6197 32.9655 34.741 35.2066C34.8765 37.6554 33.3927 38.4359 31.5237 39.4311C30.5535 39.9467 29.5476 40.4765 28.7201 41.2856C26.7941 43.1687 27.3433 45.3884 27.8284 47.3431C28.1923 48.8038 28.5347 50.1857 27.9782 51.4459C27.9711 51.453 27.9711 51.4602 27.964 51.4745C27.2435 53.0641 26.0878 53.8732 24.5113 53.8732C23.106 53.8732 21.4438 53.193 20.0456 52.0545C18.8044 51.0378 17.6558 50.2 16.115 50.2C15.6584 50.2 15.1733 50.2788 14.6882 50.4363C13.6467 50.7513 12.8549 51.4316 12.0845 52.0903Z" fill="white"/>
<path d="M61.7133 34.8271C60.0084 32.8723 57.5972 33.3234 57.5972 33.3234C56.1419 33.4237 54.758 34.0967 53.7593 35.2065C52.7249 36.3665 52.2398 37.8415 52.4039 39.3666C52.5109 40.3619 52.8248 41.3213 53.1244 42.245C53.9305 44.7296 54.2872 46.1974 52.1328 47.6079C51.1555 48.2452 49.7359 48.639 48.4162 48.639C47.3604 48.639 45.4985 48.3741 44.8707 46.584L44.8279 46.4623C43.8078 43.5553 42.538 39.9323 38.7001 39.3308C38.3934 39.2807 38.0795 39.2592 37.7656 39.2592C36.239 39.2592 34.7623 39.8249 33.5996 40.8631C32.4082 41.9228 31.6877 43.3548 31.5665 44.9014C31.4737 46.1401 31.7305 47.3645 31.9802 48.5388C32.4154 50.5866 32.7935 52.348 31.4095 53.9518C30.6605 54.8182 29.6689 55.3123 28.6131 55.835C27.0081 56.6297 25.189 57.5391 24.4685 59.9592C23.962 61.6633 24.2331 63.525 25.2032 65.0644C26.1734 66.611 27.7428 67.6492 29.4977 67.9285C29.8045 67.9786 30.1183 68.0001 30.4322 68.0001C33.7351 68.0001 36.5244 65.3723 36.6528 62.1359C36.7027 60.9402 36.3888 59.7587 36.0963 58.6131C35.547 56.5009 35.0691 54.675 36.7669 53.0998C37.9582 51.9971 40.9544 51.052 42.5737 51.052C42.6094 51.052 42.645 51.052 42.6807 51.052C44.9563 51.1164 45.6626 52.5413 46.6256 54.8683C46.9609 55.6846 47.3176 56.5367 47.7955 57.2956C48.8157 58.9067 50.5848 59.8733 52.5323 59.8733C54.009 59.8733 55.4143 59.3148 56.4843 58.3052C59.2665 55.6703 58.2677 52.348 57.3832 49.4051C57.3332 49.2333 57.2833 49.0615 57.2334 48.8968C56.5913 46.7272 57.7827 45.7821 59.7729 44.4145C60.4649 43.9419 61.1854 43.4479 61.7775 42.8608C63.1614 41.486 63.725 39.517 63.2898 37.5909C63.0402 36.524 62.4837 35.5646 61.7133 34.8271ZM60.8715 41.9657C60.3579 42.4741 59.723 42.9109 59.0453 43.3763C58.1108 44.0135 57.1406 44.6794 56.4986 45.5745C55.7353 46.6485 55.5712 47.8585 55.9921 49.2906C56.042 49.4624 56.092 49.6343 56.149 49.8061C57.0051 52.6344 57.8041 55.3051 55.5998 57.3959C54.7723 58.1763 53.6808 58.6131 52.5323 58.6131C51.0271 58.6131 49.6646 57.8756 48.8799 56.6369C48.459 55.971 48.1308 55.1762 47.8098 54.4029C46.9324 52.2835 45.9408 49.8777 42.7164 49.7918C42.6664 49.7918 42.6236 49.7918 42.5737 49.7918C40.6761 49.7918 37.3447 50.8372 35.8966 52.1761C33.6352 54.2669 34.2844 56.7586 34.8551 58.9568C35.1404 60.0595 35.4115 61.1048 35.3758 62.1073C35.276 64.6563 33.0574 66.7327 30.4322 66.7327C30.1897 66.7327 29.94 66.7112 29.6974 66.6754C28.3064 66.4606 27.0651 65.6301 26.2876 64.3985C25.5171 63.1741 25.3031 61.6991 25.7026 60.3459C26.259 58.4627 27.6144 57.7897 29.1838 57.0092C30.3038 56.4507 31.4595 55.8779 32.3797 54.8182C34.1774 52.7346 33.6994 50.472 33.2357 48.2953C32.9932 47.1568 32.7649 46.0757 32.8434 45.0231C33.036 42.5672 35.2403 40.5695 37.7656 40.5695C38.0082 40.5695 38.2578 40.591 38.5004 40.6268C41.5821 41.1065 42.6165 44.0637 43.6152 46.9134L43.658 47.0351C44.3072 48.8896 46.0407 49.9493 48.4162 49.9493C49.9713 49.9493 51.662 49.4767 52.8319 48.7034C55.9208 46.6843 55.079 44.1209 54.3442 41.8583C54.066 40.9991 53.7735 40.1113 53.6808 39.2449C53.5595 38.0849 53.9233 36.9679 54.7152 36.0801C55.5498 35.1421 56.734 34.6123 57.961 34.6123C58.4104 34.6123 58.8527 34.6839 59.2807 34.8271L59.3093 34.8414C60.6861 35.3211 61.7062 36.4667 62.0343 37.9131C62.3696 39.3881 61.9344 40.906 60.8715 41.9657Z" fill="white"/>
<path d="M41.6822 52.7775C38.9928 52.7775 36.8027 54.9757 36.8027 57.6751C36.8027 60.3745 38.9928 62.5726 41.6822 62.5726C44.3715 62.5726 46.5616 60.3745 46.5616 57.6751C46.5616 54.9757 44.3787 52.7775 41.6822 52.7775Z" fill="white"/>
<path d="M60.8786 51.152C61.9542 51.152 62.8261 50.2768 62.8261 49.1973C62.8261 48.1177 61.9542 47.2426 60.8786 47.2426C59.8031 47.2426 58.9312 48.1177 58.9312 49.1973C58.9312 50.2768 59.8031 51.152 60.8786 51.152Z" fill="white"/>
<path d="M6.92698 16.7831C8.00416 16.7831 8.87447 15.9024 8.87447 14.8284C8.87447 13.7544 7.99703 12.8737 6.92698 12.8737C5.8498 12.8737 4.97949 13.7544 4.97949 14.8284C4.97949 15.9024 5.8498 16.7831 6.92698 16.7831Z" fill="white"/>
<path d="M43.2871 7.33207C44.5284 7.33207 45.5342 6.32248 45.5342 5.07662C45.5342 3.83075 44.5284 2.82117 43.2871 2.82117C42.0459 2.82117 41.04 3.83075 41.04 5.07662C41.04 6.32248 42.0459 7.33207 43.2871 7.33207ZM43.2871 3.71619C44.029 3.71619 44.6354 4.3248 44.6354 5.06946C44.6354 5.81411 44.029 6.42273 43.2871 6.42273C42.5452 6.42273 41.9389 5.81411 41.9389 5.06946C41.9389 4.3248 42.5452 3.71619 43.2871 3.71619Z" fill="white"/>
<path d="M58.0252 21.6882C59.7872 21.6882 61.2139 20.249 61.2139 18.4876C61.2139 16.719 59.7801 15.287 58.0252 15.287C56.2703 15.287 54.8365 16.7262 54.8365 18.4876C54.8293 20.249 56.2632 21.6882 58.0252 21.6882ZM58.0252 16.2822C59.2379 16.2822 60.2224 17.2704 60.2224 18.4876C60.2224 19.7048 59.2379 20.6929 58.0252 20.6929C56.8125 20.6929 55.828 19.7048 55.828 18.4876C55.828 17.2704 56.8125 16.2822 58.0252 16.2822Z" fill="white"/>
<path d="M44.5786 42.0084C44.5786 44.1636 46.3264 45.925 48.4807 45.925C50.6351 45.925 52.3828 44.1708 52.3828 42.0084C52.3828 39.8532 50.6351 38.0918 48.4807 38.0918C46.3264 38.0918 44.5786 39.8532 44.5786 42.0084Z" fill="white"/>
<path d="M10.9359 37.5409C10.9359 34.5121 8.48192 32.0562 5.47151 32.0562C2.46111 32.0562 0 34.5193 0 37.5409C0 40.5696 2.45398 43.0327 5.46438 43.0327C8.47478 43.0327 10.9359 40.5696 10.9359 37.5409ZM1.59794 37.5409C1.59794 35.4 3.33142 33.6601 5.46438 33.6601C7.59734 33.6601 9.33082 35.4 9.33082 37.5409C9.33082 39.6818 7.59734 41.4217 5.46438 41.4217C3.33142 41.4217 1.59794 39.6818 1.59794 37.5409Z" fill="white"/>
<path d="M17.4207 53.8441C15.5731 53.8441 14.0679 55.3549 14.0679 57.2094C14.0679 59.0639 15.5731 60.5747 17.4207 60.5747C19.2683 60.5747 20.7735 59.0639 20.7735 57.2094C20.7735 55.3549 19.2683 53.8441 17.4207 53.8441ZM17.4207 59.5364C16.1438 59.5364 15.1094 58.4982 15.1094 57.2165C15.1094 55.9349 16.1438 54.8967 17.4207 54.8967C18.6976 54.8967 19.732 55.9349 19.732 57.2165C19.732 58.4911 18.6976 59.5364 17.4207 59.5364Z" fill="white"/>
<path d="M32.8433 28.5189C32.8433 29.5929 33.7136 30.4736 34.7907 30.4736C35.8679 30.4736 36.7382 29.6001 36.7382 28.5189C36.7382 27.4377 35.8608 26.5641 34.7907 26.5641C33.7207 26.5641 32.8433 27.4377 32.8433 28.5189Z" fill="white"/>
<path d="M19.1966 27.1368C17.9554 27.1368 16.9424 28.1536 16.9424 29.3995C16.9424 30.6453 17.9554 31.6621 19.1966 31.6621C20.4379 31.6621 21.4509 30.6453 21.4509 29.3995C21.4509 28.1536 20.4379 27.1368 19.1966 27.1368Z" fill="white"/>
<path d="M22.186 11.1128C23.9432 11.1128 25.3676 9.68307 25.3676 7.91938C25.3676 6.1557 23.9432 4.72595 22.186 4.72595C20.4289 4.72595 19.0044 6.1557 19.0044 7.91938C19.0044 9.68307 20.4289 11.1128 22.186 11.1128Z" fill="white"/>
</svg>
