<svg width="90" height="69" viewBox="0 0 90 69" fill="none" xmlns="http://www.w3.org/2000/svg">
<path d="M46.3012 26.9258C45.9967 25.8626 45.6922 25.1031 44.9308 24.3437C43.4082 22.8247 41.581 22.9766 41.4287 22.9766C38.6879 23.1285 34.7289 26.9258 33.3585 32.394C27.5724 40.5961 21.9385 43.1783 19.8067 42.4188C18.8931 42.1151 18.7408 41.2037 18.5886 40.1405C23.7657 38.9253 29.5518 33.9129 30.0086 30.1156C30.1609 28.4448 29.8564 27.0777 29.095 26.1664C28.3337 25.4069 27.4201 25.255 26.811 25.255C24.527 25.4069 17.3704 28.7485 16 38.1659C15.391 42.8745 17.675 44.3935 18.7409 44.8491C19.3499 45.001 19.959 45.1529 20.5681 45.1529C24.0702 45.1529 28.486 42.267 32.7494 37.2545C33.054 40.1405 34.5767 40.8999 35.4903 41.2037C35.7948 41.2037 36.0993 41.3556 36.4039 41.3556C38.2311 41.3556 40.5151 39.9886 42.3423 38.1659C39.7537 51.9881 34.8812 66.4178 28.9428 66.4178C28.1814 66.4178 27.5724 66.1141 27.1156 65.6584C26.202 64.747 25.7451 62.7724 25.7451 60.6459C25.8974 54.7221 31.5313 48.6464 34.7289 47.887C35.4903 47.7351 35.9471 46.9756 35.7948 46.3681C35.6425 45.6086 34.8812 45.1529 34.2721 45.3048C29.5518 46.2162 23.3089 53.6589 23.0043 60.494C22.8521 63.38 23.6134 65.9622 25.1361 67.4811C26.0497 68.5443 27.4201 69 28.9428 69C40.6674 69 45.5399 36.7988 46.4535 29.3561C46.6058 28.4448 46.6058 27.9891 46.6058 27.8372C46.758 27.5334 46.6058 27.2296 46.3012 26.9258ZM26.9633 27.9891L27.1156 28.141C27.2678 28.2929 27.4201 28.9004 27.2678 29.8118C26.9633 32.0902 23.0043 35.8875 18.8931 37.2545C20.5681 30.1156 26.202 28.141 26.9633 27.9891ZM43.4082 32.394C41.4287 36.495 37.622 38.9253 36.2516 38.6215C35.4903 38.4696 35.4903 36.7988 35.4903 36.3432C35.4903 35.2799 35.6425 34.2167 35.7948 33.1534C35.7948 33.1534 35.7948 33.1534 35.7948 33.0015C37.0129 28.2929 40.2106 25.5588 41.4287 25.5588C41.4287 25.5588 42.3423 25.5588 42.9514 26.1664C43.5604 26.7739 43.7127 27.8372 43.7127 29.2042C43.7127 30.2675 43.5604 31.3307 43.4082 32.394Z" fill="white"/>
<path d="M88.1743 20.8502C87.4129 20.6983 86.6516 21.0021 86.4993 21.7615C85.4334 25.2551 83.3017 27.5335 81.6268 28.2929C81.0177 28.5967 80.7132 28.5967 80.5609 28.5967C80.5609 28.5967 80.4086 28.4448 80.5609 27.9891C80.7132 26.3183 81.9313 23.4324 82.8449 20.8502C84.5198 16.5972 85.2812 14.6226 84.3676 13.4075C83.9108 12.9518 83.3017 12.648 82.6926 12.648C80.4086 12.9518 75.8406 18.8756 71.8817 24.9513C72.7953 21.3059 73.5566 17.8123 73.7089 17.6605C73.8611 16.901 73.4043 16.1415 72.643 15.9896C71.8817 15.8377 71.1203 16.2934 70.968 17.0529C70.968 17.0529 70.2067 20.0907 69.4454 23.4324C67.1614 27.8372 63.6592 32.5459 62.1365 32.5459C61.5275 31.9383 61.832 27.6853 62.8979 23.888C63.0501 23.1286 62.5933 22.3691 61.9843 22.2172C61.5275 22.0653 61.0707 22.2172 60.7661 22.521C60.6139 21.9134 60.3093 21.3059 59.8525 20.6983C59.3957 20.2426 58.6344 19.6351 57.264 19.6351C54.3709 19.6351 48.5847 25.407 48.2802 33.1535C48.1279 36.647 49.8029 37.5584 50.8688 37.7102C51.1733 37.7102 51.3256 37.8621 51.6301 37.8621C54.0664 37.8621 57.1117 35.4319 59.548 32.2421C59.7003 33.0016 59.8525 33.761 60.3093 34.2167C60.7661 34.8243 61.5275 35.1281 62.2888 35.1281C62.2888 35.1281 62.2888 35.1281 62.4411 35.1281C64.116 35.1281 65.9432 33.4573 67.6182 31.3308C67.4659 31.7864 67.3136 32.2421 67.3136 32.5459C67.1614 33.1535 67.4659 33.9129 68.075 34.2167C68.2272 34.3686 68.3795 34.3686 68.684 34.3686C69.1408 34.3686 69.5976 34.0648 69.9022 33.761C74.1657 26.774 79.495 19.0275 82.0836 16.2934C81.779 17.3567 81.17 18.7237 80.7132 19.7869C79.495 22.6729 78.4291 25.5589 78.1246 27.6854C77.9723 29.8118 79.1905 30.8751 80.4086 31.1789C83.3017 31.7864 87.7175 28.2929 89.3924 22.521C89.2401 21.7615 88.9356 21.0021 88.1743 20.8502ZM51.3256 35.1281C51.021 35.1281 50.8688 34.5205 50.8688 33.3054C51.1733 26.6221 56.0458 22.3691 57.264 22.3691C57.7208 22.2172 57.7208 22.521 57.8731 22.521C58.1776 22.8248 58.3299 23.888 58.1776 24.3437C58.0253 25.1032 58.6344 25.7107 59.3957 25.8626C59.548 25.8626 59.7003 25.8626 59.7003 25.8626C59.7003 26.1664 59.548 26.3183 59.548 26.6221C56.9594 32.0902 52.696 35.4319 51.3256 35.1281Z" fill="white"/>
<path d="M23.4607 20.0902C26.6583 18.7232 29.856 17.508 32.5968 15.2296C37.4693 11.2804 37.9261 4.44528 37.3171 1.86311C37.1648 1.40743 37.0125 0.344186 35.9467 0.0404013C35.4899 -0.111491 34.8808 0.192294 34.5762 0.496078C33.2058 2.015 30.3128 3.53392 27.5719 5.05285C24.8311 6.41988 22.3949 7.63502 20.7199 9.15394C16.6087 12.7994 15.2383 17.6599 13.8679 22.3686C13.2588 24.4951 12.4975 26.6216 11.8884 28.8999C10.3657 34.2162 8.69079 39.8362 6.25451 46.2157C4.73184 50.1649 3.81823 51.38 3.36143 51.6838C2.6001 50.3168 1.83876 44.0892 5.03637 31.634C5.49318 29.6594 6.10225 27.8367 6.40678 26.3178C7.47265 22.5205 8.23399 19.9383 7.62492 17.8118C7.62492 17.2042 6.86358 16.7486 6.10225 16.9004C5.34091 17.0523 4.88411 17.8118 5.18864 18.5713C5.49318 19.9383 4.88411 22.2167 3.9705 25.5583C3.5137 27.0772 3.0569 28.8999 2.44783 30.8745C-0.292985 41.8108 -1.35886 53.2027 2.6001 54.4179C2.90463 54.4179 3.0569 54.5697 3.36143 54.5697C5.18864 54.5697 7.01585 52.2914 8.84306 47.2789C11.2793 40.7475 12.9543 35.1275 14.6292 29.8113C15.2383 27.6848 15.8474 25.7102 16.4564 23.7356C18.1314 22.2167 20.7199 21.1534 23.4607 20.0902ZM22.3949 10.9766C23.7653 9.76151 26.2015 8.39448 28.6378 7.17934C30.9218 5.9642 33.2058 4.74906 35.0331 3.38203C35.1853 5.81231 34.424 10.3691 31.0741 13.255C28.6378 15.2296 25.5925 16.4448 22.5471 17.6599C20.7199 18.4194 18.7404 19.1788 17.2178 20.0902C18.2836 16.7486 19.654 13.5588 22.3949 10.9766Z" fill="white"/>
</svg>
